Coordinates
version=1
nRows=16
nColumns=36
inDegrees=yes

Units are S.I. units (second, meters, Newtons, ...)
If the header above contains a line with 'inDegrees', this indicates whether rotational values are in degrees (yes) or radians (no).

endheader
time	pelvis_tilt	pelvis_list	pelvis_rotation	pelvis_tx	pelvis_ty	pelvis_tz	hip_flexion_r	hip_adduction_r	hip_rotation_r	knee_angle_r	knee_angle_r_beta	ankle_angle_r	subtalar_angle_r	mtp_angle_r	hip_flexion_l	hip_adduction_l	hip_rotation_l	knee_angle_l	knee_angle_l_beta	ankle_angle_l	subtalar_angle_l	mtp_angle_l	lumbar_extension	lumbar_bending	lumbar_rotation	arm_flex_r	arm_add_r	arm_rot_r	elbow_flex_r	pro_sup_r	arm_flex_l	arm_add_l	arm_rot_l	elbow_flex_l	pro_sup_l
      5.83333330	    -15.17379824	     -1.80339776	      3.95131028	      0.78633763	      0.96774602	      0.03053236	     27.64598452	     -7.97029618	    -12.27412729	     20.06088051	      0.35012842	     10.68521229	      0.71364192	     -7.49999987	     28.50001706	     -6.97484565	     -7.18377695	     20.71379223	      0.36152387	     10.14869889	      1.85839731	     -7.49999987	     -0.89177364	     -0.62406633	      1.04448783	     59.21707395	     10.61233118	     67.93557202	    127.56032217	     87.46374837	     49.80633036	      7.56932278	     69.45499419	    130.35640534	     81.52342193
      5.85000000	    -14.25452635	     -2.11539122	      4.00297228	      0.78571878	      0.96804544	      0.02407225	     25.34778347	     -7.26573874	    -12.12146041	     17.99291071	      0.31403553	      9.80088389	      0.20858092	     -7.49999987	     26.42199604	     -6.96491802	     -6.77643542	     18.79917399	      0.32810748	      9.65676218	      1.60187726	     -7.49999987	     -0.28711957	     -0.20936164	      0.44663533	     58.13618669	     10.56122740	     67.60986052	    127.39401564	     87.33678093	     49.62039511	      7.42238373	     68.54834229	    130.64794903	     81.31830499
      5.86666670	    -13.15329972	     -2.19634665	      3.91749144	      0.79481196	      0.97083678	      0.02359210	     23.04269010	     -6.83530896	    -11.84858475	     16.40819832	      0.28637708	      8.86544374	     -0.35150535	     -7.49999987	     23.79668501	     -6.85315757	     -6.52307555	     16.74420361	      0.29224148	      9.28114689	      1.32768945	     -7.49999987	      0.17095887	      0.01279015	     -0.40996066	     56.61555190	     10.72199038	     67.37568654	    127.44494578	     87.21361264	     48.66715363	      7.15221670	     67.19454306	    130.43240583	     81.03651648
      5.88333330	    -12.07205704	     -2.35220395	      4.06665860	      0.80831856	      0.97439199	      0.02776034	     20.37548788	     -6.21617704	    -11.75305724	     14.58988900	      0.25464160	      8.06581394	     -0.93405566	     -7.49999987	     20.91305656	     -6.87586479	     -6.20987446	     14.40430311	      0.25140252	      8.88689861	      1.13550797	     -7.49999987	      0.82198344	      0.22990909	     -0.85569253	     54.74065532	     11.00691454	     67.36922743	    127.55728278	     87.00124017	     46.86725159	      7.31599172	     66.38031877	    130.77763032	     80.61910502
      5.90000000	    -11.22560576	     -2.34939995	      3.81050139	      0.82144058	      0.97521070	      0.02473259	     17.59488664	     -5.65757481	    -11.50148733	     12.30069801	      0.21468768	      7.41118176	     -1.17305556	     -7.49999987	     17.76169553	     -6.75809915	     -6.21969396	     11.76465820	      0.20533202	      8.62889958	      1.11813840	     -7.49999987	      2.06992157	      0.26804822	     -1.00564107	     52.27414125	     11.46886051	     68.13592420	    127.92394045	     86.80611707	     44.38572802	      7.66791462	     66.20970309	    130.96439678	     80.24610209
      5.91666670	    -10.55811887	     -2.36731882	      3.74549276	      0.82478264	      0.97525136	      0.02210663	     14.99720911	     -5.14922565	    -11.10019969	      9.79608674	      0.17097397	      7.00973267	     -1.44612841	     -7.49999987	     15.14062628	     -6.49163996	     -5.90526946	      9.26564110	      0.16171594	      8.42578335	      0.97276405	     -7.49999987	      3.34493141	      0.36504641	     -0.91861618	     50.04781635	     11.55067340	     68.71978294	    128.61471350	     86.58987648	     41.74670951	      7.74708322	     65.98554925	    130.87746671	     79.94747212
      5.93333330	     -9.93297669	     -2.34294074	      3.75868763	      0.82804784	      0.97577795	      0.01893948	     12.64575102	     -4.80101767	    -10.52615353	      7.35244961	      0.12832445	      6.85988765	     -1.64367804	     -7.49999987	     12.92216875	     -6.19437092	     -5.50466224	      7.23047693	      0.12619563	      8.43140221	      0.72414127	     -7.49999987	      4.40117371	      0.37693551	     -0.72414002	     48.11958846	     11.52611081	     69.10241941	    129.06945090	     86.29244174	     39.11884737	      7.77110939	     65.48085711	    130.48290468	     79.63912453
      5.95000000	     -9.61308853	     -2.38109552	      3.65638545	      0.82684820	      0.97521585	      0.01960700	     11.22074505	     -4.49070243	    -10.00973933	      5.54182924	      0.09672317	      6.81128335	     -1.74079507	     -7.49999987	     11.52103565	     -6.02004213	     -5.15388350	      5.77512627	      0.10079497	      8.67619269	      0.54589988	     -7.49999987	      5.24492834	      0.47814080	     -0.44192477	     46.68653594	     11.20917118	     69.65228626	    129.43250104	     86.16396856	     37.15411870	      7.75749688	     65.38291891	    130.20738853	     79.52978229
      5.96666670	     -8.98849166	     -2.37152658	      3.69722590	      0.83060971	      0.97594857	      0.01630568	      9.55389776	     -4.32186123	     -9.28770525	      3.93086614	      0.06860656	      6.57210175	     -2.14773548	     -7.49999987	     10.03113300	     -5.79804719	     -4.62617548	      4.60955287	      0.08045187	      8.65701218	      0.18519280	     -7.49999987	      5.60524548	      0.55395047	     -0.05467438	     45.75043144	     10.68710944	     69.74523580	    129.74880684	     85.33629318	     35.08945701	      8.82390101	     66.50685609	    130.69331834	     79.03641654
      5.98333330	     -8.60365251	     -2.25259728	      3.42615790	      0.82994987	      0.97104415	      0.01745512	      8.59852893	     -4.29131953	     -8.22530156	      2.92617653	      0.05107141	      6.39817782	     -2.97420569	     -7.49999987	      8.98354228	     -5.58239035	     -4.68995614	      3.89401430	      0.06796337	      8.87349742	      0.19702374	     -7.49999987	      5.96378625	      0.39080790	      0.43819843	     44.71998401	     10.15338472	     69.55373224	    129.98170206	     83.07252911	     34.05588262	      8.86620604	     66.45931203	    130.70041241	     77.43341932
      6.00000000	     -8.40563669	     -2.15605773	      3.22192109	      0.83362758	      0.97410950	      0.02040604	      7.86451810	     -4.25810247	     -7.87447869	      2.10860292	      0.03680206	      6.67111958	     -2.78775550	     -7.49999987	      8.32133257	     -5.48187694	     -4.43619217	      3.47898596	      0.06071976	      9.13487369	      0.05735842	     -7.49999987	      6.49887380	      0.17901665	      0.76420784	     43.83672231	      9.96068298	     69.58105836	    129.76286996	     83.08038462	     33.24688891	      8.48647441	     66.63668308	    130.81512579	     77.49108032
      6.01666670	     -7.76185578	     -2.03676595	      2.85917728	      0.83789707	      0.97253263	      0.01834752	      6.75144451	     -4.28258020	     -7.39970408	      1.55537722	      0.02714645	      6.54949044	     -2.52347883	     -7.49999987	      6.94719303	     -5.39561082	     -4.50938865	      2.74540318	      0.04791632	      8.87424449	     -0.15374989	     -7.49999987	      6.69452230	      0.20310748	      1.24026193	     42.63687072	     10.19537740	     68.60630959	    129.17494732	     83.13673779	     32.57838503	      8.11181780	     65.97686430	    131.12286595	     77.70222611
      6.03333330	     -7.24067913	     -1.97471543	      2.41969653	      0.83709666	      0.97326440	      0.01827536	      5.93259089	     -4.29873396	     -6.91266263	      1.21535770	      0.02121199	      6.71767485	     -2.33137939	     -7.49999987	      5.89946813	     -5.35233676	     -4.71968961	      2.25463150	      0.03935074	      9.06556261	     -0.16671912	     -7.49999987	      7.04156247	      0.27892855	      1.39695544	     42.08397913	     10.31983335	     68.38815184	    128.84388145	     80.12934981	     32.34732864	      8.06733129	     65.75417913	    131.12644362	     75.73545519
      6.05000000	     -6.90100225	     -1.91018613	      2.00545199	      0.83637451	      0.97373406	      0.01907236	      5.44291666	     -4.36779487	     -6.14132228	      1.01949303	      0.01779351	      6.80272310	     -2.43482695	     -7.49999987	      5.17634539	     -5.31789606	     -4.94807569	      1.87323591	      0.03269413	      9.14245299	     -0.32920096	     -7.49999987	      7.40128635	      0.32790056	      1.74770291	     41.74938197	     10.38194110	     67.58087764	    128.34536359	     85.62357570	     32.34585318	      8.48864223	     65.96045636	    130.92886134	     80.49288183
      6.06666670	     -6.60518826	     -1.86101352	      1.58278054	      0.83605807	      0.97197838	      0.01895579	      5.08887291	     -4.45402139	     -5.44832322	      0.90635111	      0.01581881	      6.92782881	     -2.43488857	     -7.49999987	      4.60780629	     -5.28337117	     -5.19454391	      1.56045203	      0.02723503	      9.29651863	     -0.29493759	     -7.49999987	      7.71988926	      0.39636382	      2.07395576	     41.94109254	     10.45123441	     67.00851458	    127.77382387	     86.46257880	     32.67037605	      9.06672065	     66.47663213	    130.72379618	     80.44654809
      6.08333330	     -6.32684339	     -1.80340257	      1.19446622	      0.83537544	      0.97499845	      0.01965209	      4.80818696	     -4.53334573	     -4.85669948	      0.82186108	      0.01434418	      7.05356292	     -2.26733072	     -7.49999987	      4.12174156	     -5.26008214	     -5.37918286	      1.26970906	      0.02216060	      9.25537342	     -0.36261708	     -7.49999987	      7.96307662	      0.42069440	      2.35519629	     42.25926850	     10.38792586	     66.46616015	    127.03689689	     87.57635457	     32.99606046	      9.08930896	     66.72958468	    130.64282583	     80.12006636
